<svg width="20" height="24" viewBox="0 0 20 24" fill="none" xmlns="http://www.w3.org/2000/svg">
<g clip-path="url(#clip0_6619_45898)">
<path fill-rule="evenodd" clip-rule="evenodd" d="M9.74634 0.225348C9.70716 0.414387 9.62815 0.525197 9.50733 0.559982C9.34148 0.607754 9.33868 0.619795 9.47309 0.709041C9.55358 0.762401 9.61934 0.845745 9.61934 0.894226C9.61934 0.942705 9.45358 1.06162 9.25086 1.1585C8.92938 1.31213 8.90757 1.33818 9.07967 1.36257C9.18823 1.37792 9.37761 1.43789 9.50049 1.49573C9.72239 1.60017 9.72263 1.60151 9.54066 1.68997C9.43975 1.73892 9.30897 1.77339 9.24988 1.76646C9.19078 1.75953 9.09375 1.75804 9.03407 1.76323C8.97449 1.76835 8.92568 1.8103 8.92568 1.8565C8.92568 1.9027 8.99712 1.91993 9.08453 1.89474C9.18296 1.86641 9.30354 1.90931 9.40148 2.00752C9.48839 2.09472 9.5242 2.17011 9.48107 2.17507C9.43786 2.18011 9.36354 2.19239 9.31589 2.20247C9.26815 2.21254 9.16049 2.22615 9.07654 2.23276C8.99259 2.23929 8.8572 2.31556 8.77547 2.40213C8.69383 2.4887 8.56741 2.56007 8.49457 2.56071C8.42165 2.56141 8.30354 2.59833 8.23202 2.64272C8.13904 2.70048 8.29333 2.71756 8.77309 2.70261C9.31391 2.68569 9.47325 2.70796 9.59366 2.81735C9.73457 2.94516 9.73457 2.95303 9.59457 2.95303C9.51276 2.95303 9.44593 2.89991 9.44593 2.83498C9.44593 2.77005 9.40272 2.71693 9.34996 2.71693C9.29712 2.71693 9.27523 2.76714 9.30115 2.82845C9.32708 2.88983 9.28897 2.96066 9.21663 2.98585C9.1442 3.01111 9.02288 3.03173 8.94708 3.03173C8.87128 3.03173 8.7349 3.09281 8.64403 3.16741C8.55317 3.24202 8.35506 3.33945 8.20372 3.38384C8.05232 3.42822 7.9285 3.51086 7.9285 3.56744C7.9285 3.62403 7.83096 3.73941 7.71173 3.82377L7.49495 3.97724L7.84179 3.96237C8.03255 3.95418 8.28074 3.91105 8.39325 3.86651C8.55877 3.80103 8.62033 3.81362 8.71597 3.9323C8.82288 4.06507 8.83942 4.06664 8.88914 3.94883C8.91942 3.87729 9.033 3.81873 9.14156 3.81873C9.26609 3.81873 9.35572 3.8769 9.38436 3.97613C9.41803 4.09285 9.387 4.13353 9.26436 4.13353C9.1735 4.13353 9.08016 4.13566 9.05712 4.13818C9.03407 4.14078 8.73169 4.21389 8.3851 4.30077C8.03863 4.38758 7.56744 4.56757 7.33818 4.70073C7.10883 4.83389 6.9544 4.97295 6.99489 5.00971C7.03538 5.04647 7.24991 5.1073 7.47163 5.14492C7.69334 5.18254 7.90639 5.18687 7.94498 5.15452C7.98365 5.12225 8.09325 5.12469 8.18863 5.16003C8.3428 5.21716 8.34461 5.22488 8.20519 5.22984C8.10314 5.23338 8.07157 5.26942 8.11484 5.33301C8.15143 5.38668 8.1758 5.71431 8.16904 6.06099C8.16219 6.40767 8.13765 6.74443 8.11449 6.80935C8.09126 6.87428 8.05276 6.98053 8.02891 7.04546C8.00194 7.11881 7.98295 7.09637 7.97871 6.98643C7.97324 6.84571 7.92114 6.80935 7.72517 6.80935C7.5879 6.80935 7.40824 6.73892 7.32031 6.6507C7.16701 6.497 7.16728 6.48849 7.32855 6.37776C7.45966 6.28765 7.46737 6.26081 7.36489 6.25098C7.29335 6.24413 7.15678 6.23067 7.0614 6.22107C6.96602 6.21139 6.84895 6.19762 6.80127 6.19045C6.75358 6.18321 6.77196 6.14442 6.84211 6.10412C6.91226 6.06383 6.94113 6.00504 6.90627 5.97332C6.87133 5.94168 6.79251 5.97819 6.73104 6.05453C6.62533 6.18573 6.59212 6.1862 6.12493 6.06288C5.74418 5.96246 5.63067 5.89761 5.63067 5.78066C5.63067 5.67977 5.69068 5.62885 5.80956 5.62885C5.95923 5.62885 5.98403 5.58698 5.96131 5.37307C5.93659 5.14043 5.90667 5.11627 5.63067 5.1062C5.40393 5.09793 5.38746 5.10423 5.56565 5.13115C5.69684 5.1509 5.80402 5.19128 5.80384 5.22086C5.80366 5.25046 5.66744 5.27737 5.50114 5.2806C5.33473 5.28383 5.17016 5.31231 5.13539 5.34387C5.10054 5.37544 5.12412 5.43053 5.18776 5.46618C5.28375 5.52001 5.28332 5.53835 5.18525 5.57376C5.11467 5.59926 5.1418 5.61893 5.25288 5.62263C5.35511 5.62602 5.46003 5.67937 5.48622 5.74115C5.51232 5.80294 5.48431 5.89061 5.42405 5.93602C5.34679 5.99417 5.28427 5.99126 5.21239 5.92602C5.13426 5.85511 5.11042 5.87447 5.11042 6.00905C5.11042 6.10569 5.04217 6.20816 4.95867 6.23681C4.87517 6.26554 4.7595 6.32637 4.70158 6.37209C4.64356 6.41782 4.53761 6.49975 4.4659 6.55429C4.39427 6.60875 4.18807 6.68485 4.00772 6.72342C3.80647 6.76646 3.74672 6.80093 3.85312 6.81266C3.94849 6.82321 4.18677 6.83927 4.38274 6.8484C4.57863 6.85744 4.78343 6.88995 4.83798 6.92048C4.89243 6.95101 4.937 7.09788 4.937 7.24686C4.937 7.39584 4.97359 7.51766 5.01833 7.51766C5.06307 7.51766 5.09238 7.35696 5.08337 7.1606C5.06897 6.84454 5.08692 6.80613 5.24049 6.82612C5.33586 6.83856 5.41876 6.89301 5.42474 6.94708C5.43072 7.00123 5.44044 7.08087 5.44642 7.12416C5.4524 7.16744 5.49533 7.20286 5.5418 7.20286C5.59521 7.20286 5.59729 7.13336 5.54735 7.01421C5.50391 6.9104 5.48761 6.80801 5.51119 6.78669C5.53469 6.76528 5.62981 6.76575 5.72242 6.78771C5.81502 6.80975 5.89081 6.8923 5.89081 6.97132C5.89081 7.05026 5.8544 7.13534 5.80982 7.16028C5.76525 7.18531 5.75086 7.32902 5.77783 7.47972C5.808 7.64846 5.79144 7.75376 5.73473 7.75376C5.68418 7.75376 5.62582 7.67412 5.60519 7.57669L5.56756 7.39961L5.55576 7.57669C5.5477 7.69773 5.48908 7.75376 5.37054 7.75376C5.21472 7.75376 5.19713 7.80625 5.19713 8.26996C5.19713 8.61438 5.22782 8.76888 5.2893 8.73446C5.33994 8.70602 5.57414 8.67741 5.80965 8.67075C6.04515 8.66426 6.23791 8.67656 6.23791 8.69816C6.238 8.71977 6.3515 8.74471 6.49024 8.75351C6.64822 8.7635 6.76138 8.72481 6.79295 8.65008C6.82069 8.58448 6.88295 8.55297 6.93133 8.58013C6.97972 8.60729 7.04397 8.57116 7.07406 8.49984C7.11793 8.39604 7.14378 8.39108 7.20351 8.47513C7.26413 8.56031 7.29179 8.561 7.3504 8.47867C7.39012 8.42287 7.53649 8.36975 7.67556 8.36062C7.81465 8.3515 7.94854 8.32009 7.97307 8.29074C7.99752 8.26146 8.26099 8.25752 8.55835 8.282C8.92494 8.31223 9.0991 8.36015 9.0991 8.4309C9.0991 8.48827 9.02362 8.57184 8.93136 8.61668C8.8391 8.66152 8.58552 8.69816 8.36774 8.69816C8.15005 8.69816 7.97186 8.66383 7.97186 8.62189C7.97186 8.58004 7.91003 8.56723 7.83451 8.59354C7.72395 8.63206 7.7197 8.65435 7.81283 8.7079C7.87648 8.74454 7.88948 8.77973 7.84179 8.78596C7.7941 8.79237 7.89165 8.82414 8.05857 8.85677C8.22982 8.89008 7.54117 8.91749 6.47758 8.91971C5.40124 8.92194 4.57169 8.89213 4.54316 8.85019C4.51567 8.80988 4.59076 8.77691 4.70998 8.77691C4.82922 8.77691 4.94879 8.74446 4.97575 8.70483C5.00272 8.66528 4.97575 8.61497 4.91584 8.59303C4.8293 8.56142 4.82922 8.55194 4.91532 8.54699C4.97497 8.54357 5.0237 8.48765 5.0237 8.42272C5.0237 8.35779 5.00793 8.30467 4.98858 8.30467C4.96917 8.30467 4.78387 8.38352 4.57672 8.47993C4.36947 8.57637 4.18157 8.66673 4.15912 8.68091C4.13666 8.69509 4.17568 8.73967 4.24583 8.7799C4.32802 8.82705 3.93393 8.85361 3.13775 8.85438C2.09784 8.8554 1.90213 8.87428 1.90213 8.97361C1.90213 9.03852 1.86511 9.09164 1.81976 9.09164C1.77449 9.09164 1.55625 9.20268 1.33479 9.33831C1.03763 9.52031 0.962716 9.60248 1.04864 9.65184C1.11272 9.68865 1.2747 9.7194 1.40867 9.72009C1.57047 9.72085 1.63151 9.75177 1.59041 9.81216C1.55399 9.86562 1.5664 9.88177 1.62058 9.85136C1.67123 9.82292 1.80407 9.83137 1.91584 9.86998C2.11605 9.93942 2.11518 9.94112 1.85878 9.99485C1.7157 10.0247 1.42306 10.1014 1.20845 10.1651C0.993844 10.2288 0.642666 10.3008 0.428058 10.3251C0.21345 10.3495 0.02156 10.3829 0.00170329 10.3995C-0.0181533 10.416 0.137925 10.4351 0.348545 10.442C0.559164 10.4488 0.779148 10.4529 0.837243 10.4511C0.895424 10.4493 0.966354 10.5146 0.994881 10.5961C1.02644 10.6865 1.12712 10.7444 1.2525 10.7444C1.36574 10.7444 1.48245 10.7798 1.51193 10.8231C1.54142 10.8664 1.65848 10.9018 1.77207 10.9018C1.88566 10.9018 2.00333 10.9381 2.03359 10.9826C2.06385 11.027 2.13443 11.0583 2.19044 11.052C2.24646 11.0456 2.36482 11.0447 2.45335 11.0499C2.5503 11.0555 2.59659 11.1013 2.56963 11.165C2.53711 11.2418 2.5855 11.2602 2.74669 11.2323C2.88985 11.2074 2.94821 11.2235 2.91144 11.2775C2.87806 11.3265 2.96277 11.3828 3.11608 11.4133C3.26002 11.442 3.35514 11.4986 3.32765 11.5391C3.30008 11.5795 3.2412 11.5923 3.19681 11.5673C3.15241 11.5425 3.11295 11.5862 3.10923 11.6644C3.10524 11.747 3.08399 11.7656 3.05867 11.7085C3.03457 11.6543 2.96086 11.6101 2.89479 11.6101C2.8256 11.6101 2.79508 11.6584 2.82282 11.724C2.85091 11.7903 3.02156 11.8502 3.23201 11.8676L3.59299 11.8974L3.18111 11.9111C2.95463 11.9187 2.76923 11.9617 2.76923 12.0067C2.76923 12.0547 2.72094 12.0476 2.65226 11.9893C2.58793 11.9348 2.54336 11.836 2.55315 11.7698C2.56295 11.7035 2.5542 11.6937 2.53365 11.7478C2.51319 11.8019 2.42119 11.8462 2.32936 11.8462C2.23744 11.8462 2.16226 11.875 2.16226 11.9103C2.16226 11.9456 2.29883 12.0336 2.46575 12.1058C2.63267 12.1781 2.76923 12.2929 2.76923 12.3611C2.76923 12.4293 2.80462 12.4652 2.84779 12.441C2.89098 12.4168 2.90598 12.3261 2.881 12.2396C2.85187 12.1384 2.8784 12.0822 2.95532 12.0822C3.02113 12.0822 3.11347 12.1585 3.16056 12.2518C3.23426 12.3979 3.33034 12.4249 3.85312 12.4463C4.18695 12.46 4.55764 12.4931 4.67686 12.5198C4.89268 12.5681 4.89234 12.569 4.59016 12.7232C4.36072 12.8403 4.33956 12.8658 4.50344 12.828C4.62267 12.8005 4.80806 12.7589 4.91532 12.7357C5.07235 12.7017 5.11042 12.7272 5.11042 12.8658C5.11042 12.9604 5.16895 13.0911 5.24049 13.156C5.35607 13.2609 5.37054 13.2521 5.37054 13.0768C5.37054 12.9683 5.41382 12.7798 5.46671 12.658L5.56278 12.4364L5.65938 12.6332C5.71253 12.7414 5.79491 12.8546 5.84251 12.8848C5.89021 12.9148 5.90555 12.9609 5.87677 12.987C5.84798 13.013 5.85794 13.1699 5.89896 13.3354C5.94847 13.5356 5.9359 13.7675 5.86133 14.0284C5.79976 14.2441 5.76586 14.5494 5.78607 14.7068C5.80635 14.8642 5.85769 14.9734 5.90017 14.9496C5.94275 14.9258 5.97752 14.9426 5.97752 14.9871C5.97752 15.0316 6.02911 15.0501 6.09215 15.028C6.15805 15.005 6.25066 15.0756 6.31006 15.1938C6.36685 15.307 6.39295 15.4294 6.36807 15.4659C6.34309 15.5025 6.38445 15.5884 6.4598 15.6568C6.53524 15.7253 6.63314 15.7812 6.67736 15.7812C6.72167 15.7812 6.75791 15.6927 6.75791 15.5845C6.75791 15.4762 6.71109 15.3877 6.65386 15.3877C6.57296 15.3877 6.57296 15.3667 6.65386 15.2933C6.71109 15.2414 6.75791 15.1346 6.75791 15.056C6.75791 14.9776 6.72011 14.8518 6.67398 14.7767C6.62776 14.7015 6.55683 14.3833 6.51625 14.0695C6.47567 13.7556 6.4716 13.4989 6.50723 13.4989C6.54287 13.4989 6.6001 13.7025 6.63444 13.9514C6.67667 14.2579 6.71586 14.3548 6.75574 14.2517C6.79771 14.1434 6.83361 14.1274 6.88052 14.1962C6.91668 14.2493 6.89908 14.3444 6.8415 14.4074C6.7802 14.4744 6.77309 14.5221 6.82433 14.5221C6.87263 14.5221 6.91026 14.5663 6.90801 14.6204C6.90584 14.6745 6.91017 14.9933 6.91763 15.3287C6.92639 15.718 6.96636 15.9386 7.02819 15.9386C7.0823 15.9386 7.10501 15.8692 7.07961 15.7812C7.05472 15.6946 7.06652 15.6238 7.10597 15.6238C7.14542 15.6238 7.20612 15.739 7.24098 15.8796C7.2793 16.0348 7.32144 16.089 7.34815 16.0173C7.37226 15.9524 7.45567 15.8462 7.53337 15.7812C7.63395 15.6973 7.67063 15.544 7.6604 15.25C7.65259 15.0228 7.67617 14.8368 7.71303 14.8368C7.74979 14.8368 7.80356 14.8928 7.83251 14.9613C7.86147 15.0298 7.88514 15.2224 7.88514 15.3896C7.88514 15.5565 7.92651 15.7164 7.97714 15.7448C8.03082 15.775 8.05874 16.0048 8.04426 16.2984C8.02761 16.6346 8.05692 16.8334 8.13296 16.9006C8.22626 16.9831 8.23728 16.9466 8.19462 16.6958C8.1543 16.4587 8.17684 16.3671 8.29572 16.2852C8.37992 16.2272 8.40617 16.1786 8.35407 16.1772C8.30091 16.1758 8.26206 16.0369 8.26543 15.8599C8.26872 15.6868 8.29646 15.5451 8.32708 15.5451C8.3577 15.5451 8.40691 15.678 8.43646 15.8403C8.46601 16.0026 8.49062 16.2348 8.49119 16.3565C8.49169 16.4839 8.45547 16.5569 8.40543 16.5289C8.35292 16.4994 8.31868 16.6083 8.31868 16.8044C8.31868 17.0426 8.28996 17.1128 8.21031 17.0693C8.12698 17.0239 8.12472 17.0364 8.20077 17.1237C8.25514 17.1861 8.29696 17.3788 8.29366 17.5519C8.2893 17.7762 8.22844 17.9177 8.08189 18.0438C7.92538 18.1786 7.90891 18.221 8.01287 18.221C8.08805 18.221 8.18005 18.3006 8.21733 18.398C8.25465 18.4955 8.25712 18.8761 8.22288 19.2441C8.18863 19.6119 8.14103 20.0104 8.11719 20.1294C8.08666 20.282 8.10998 20.3459 8.19626 20.3459C8.2786 20.3459 8.32115 20.4424 8.32601 20.6409L8.33333 20.9361L8.49638 20.6149C8.64288 20.326 8.68568 20.2971 8.91975 20.3283C9.08741 20.3505 9.20272 20.423 9.24346 20.5315C9.27835 20.6241 9.30288 20.7177 9.29803 20.7393C9.29317 20.761 9.34387 20.8243 9.41086 20.8802C9.48124 20.9388 9.53267 20.9471 9.53267 20.8998C9.53267 20.8549 9.59119 20.8181 9.66272 20.8181C9.74428 20.8181 9.79663 20.8987 9.80305 21.0345C9.80872 21.1535 9.80765 21.2801 9.80091 21.3158C9.79408 21.3515 9.82848 21.3583 9.87729 21.3308C9.92626 21.3034 9.96617 21.1414 9.96617 20.9708C9.96617 20.8002 9.99547 20.6607 10.0312 20.6607C10.0669 20.6606 10.0883 21.3326 10.0786 22.1539C10.1027 22.94 10.1988 23.6754 10.1988 23.6754C10.1988 23.6754 10.5068 24.6865 11.0347 23.1398C11.0622 22.9665 11.1006 22.5416 11.1198 22.1953C11.1392 21.8491 11.1607 21.4308 11.1676 21.266C11.1758 21.0689 11.213 20.9845 11.2761 21.02C11.3425 21.0572 11.3545 21.001 11.315 20.8379C11.272 20.6603 11.2926 20.5898 11.3979 20.5531C11.475 20.5263 11.5194 20.4771 11.4967 20.4438C11.4741 20.4104 11.5092 20.2952 11.5748 20.1874C11.6406 20.0798 11.6968 20.0271 11.6999 20.0704C11.703 20.1137 11.8215 19.9256 11.963 19.6526C12.1048 19.3794 12.2584 19.1773 12.3048 19.2032C12.3511 19.2292 12.4099 19.1693 12.4353 19.0702C12.4607 18.971 12.4912 18.4649 12.5029 17.9455C12.5219 17.101 12.5402 17.0023 12.6759 17.012C12.7594 17.018 12.8277 16.9778 12.8277 16.9227C12.8277 16.8677 12.935 16.8032 13.0661 16.7794C13.2437 16.7473 13.3438 16.7801 13.4584 16.908L13.6122 17.0798L13.5884 16.8436C13.5665 16.6253 13.5956 16.5987 13.9761 16.4895L14.3876 16.3715L14.388 15.7191C14.3883 15.2083 14.3481 14.9947 14.2034 14.7353C14.1016 14.5531 13.9894 14.3862 13.9541 14.3646C13.9188 14.3429 13.866 14.2013 13.8367 14.0498C13.8075 13.8983 13.8058 13.8186 13.833 13.8728C13.8602 13.9268 13.9477 13.9683 14.0271 13.9649C14.1173 13.961 14.1309 13.9437 14.0633 13.919C14.0037 13.8971 13.9549 13.8248 13.9549 13.7582C13.9549 13.6731 13.9872 13.6597 14.0633 13.7133C14.1229 13.7552 14.3879 13.7973 14.6523 13.8067C15.058 13.8209 15.2133 13.7823 15.6495 13.5582C15.9335 13.4123 16.273 13.2291 16.4037 13.1511C16.5346 13.0732 16.6942 13.0277 16.7584 13.0501C16.8228 13.0725 16.9129 13.0675 16.9588 13.0391C17.0048 13.0106 17.128 12.8592 17.2328 12.7026C17.3375 12.546 17.4233 12.3827 17.4233 12.3398C17.4233 12.2967 17.3255 12.2785 17.206 12.2992C17.0865 12.3199 16.9402 12.3021 16.8808 12.2596C16.8215 12.2171 16.6621 12.1969 16.5265 12.2146C16.3911 12.2325 16.2266 12.2066 16.1611 12.1573C16.0864 12.101 15.9114 12.0875 15.6921 12.1212C15.4737 12.1547 15.3422 12.1447 15.3422 12.0946C15.3422 12.0506 15.43 11.9989 15.5374 11.9798L15.7324 11.9449L15.5383 11.8866C15.4315 11.8545 15.366 11.7963 15.3925 11.7573C15.4192 11.7182 15.4773 11.7065 15.5216 11.7316C15.566 11.7564 15.6024 11.737 15.6024 11.6885C15.6024 11.6399 15.6706 11.6079 15.7541 11.6173C15.8376 11.6266 15.9739 11.6074 16.057 11.5746C16.1403 11.5418 16.1852 11.4808 16.1568 11.4391C16.1283 11.3975 16.1872 11.3439 16.2873 11.3201C16.3875 11.2964 16.4695 11.2457 16.4695 11.2074C16.4695 11.1692 16.5648 11.1379 16.6812 11.1379C16.8594 11.1379 16.9058 11.1907 16.9753 11.4723C17.0396 11.7326 17.06 11.7588 17.0672 11.5904C17.0723 11.4714 17.1545 11.3031 17.2499 11.2166C17.3453 11.13 17.4233 11.0267 17.4233 10.987C17.4233 10.9472 17.606 10.8515 17.8293 10.774C18.141 10.666 18.2435 10.6563 18.2716 10.7324C18.2973 10.8027 18.3401 10.7915 18.4189 10.6937C18.4805 10.6172 18.7562 10.5126 19.0388 10.4584C19.3187 10.4049 19.6843 10.3551 19.8512 10.348C20.0997 10.3374 20.0526 10.3155 19.591 10.2268C19.2811 10.1674 18.9597 10.0824 18.8769 10.038C18.7941 9.99365 18.6556 9.95735 18.5691 9.95735C18.4826 9.95735 18.3643 9.91422 18.3062 9.86152C18.2481 9.80883 18.0744 9.76057 17.9203 9.75442C17.7662 9.74819 17.4771 9.70215 17.278 9.6521C16.9829 9.57779 16.9058 9.51861 16.8604 9.33113C16.8226 9.17483 16.7443 9.09344 16.6155 9.07678C16.4955 9.06132 16.4159 8.98719 16.3983 8.87436C16.3756 8.72959 16.4216 8.68715 16.6453 8.64658L16.9202 8.59661L16.5922 8.49433C16.4118 8.43798 16.2306 8.41075 16.1895 8.43381C16.1486 8.4568 16.0582 8.43279 15.9887 8.38054C15.9193 8.3282 15.8625 8.25847 15.8625 8.22549C15.8625 8.1926 15.9406 8.14711 16.0359 8.12444C16.1313 8.10185 16.2093 8.11634 16.2093 8.15663C16.2093 8.197 16.3264 8.17505 16.4695 8.10792C16.6125 8.04079 16.7296 7.95594 16.7296 7.91943C16.7296 7.88291 16.5833 7.83112 16.4044 7.80429C16.2257 7.77745 15.9685 7.7551 15.833 7.75463C15.6834 7.75408 15.5245 7.68427 15.428 7.57669C15.3111 7.44628 15.2767 7.29895 15.2974 7.01768C15.3194 6.71814 15.3828 6.58207 15.5913 6.3869L15.857 6.13804L15.4202 5.91524C15.1801 5.7927 14.968 5.65159 14.9489 5.60162C14.9299 5.55164 14.896 5.0508 14.8736 4.48848C14.8372 3.57586 14.8137 3.45207 14.654 3.33473C14.5556 3.2624 14.4751 3.18237 14.4751 3.15686C14.4751 3.13128 14.5337 3.11043 14.6052 3.11043C14.6767 3.11043 14.7352 3.0924 14.7352 3.07037C14.7352 3.04833 14.6238 2.92438 14.4874 2.79492C14.3511 2.66546 14.2188 2.55953 14.1933 2.55953C14.1679 2.55953 14.1226 2.64806 14.0927 2.75628C14.0627 2.86449 13.9872 2.95303 13.9249 2.95303C13.85 2.95303 13.8236 3.02795 13.8472 3.17394C13.8695 3.31222 13.8315 3.43357 13.7454 3.49835C13.6449 3.57414 13.6081 3.74413 13.6081 4.13165C13.6081 4.423 13.5832 4.87639 13.553 5.13925C13.5035 5.56872 13.4754 5.62223 13.2747 5.66796C13.1147 5.7044 13.0194 5.67937 12.9394 5.58013C12.8779 5.50379 12.8277 5.48427 12.8277 5.53677C12.8277 5.58926 12.7338 5.67103 12.6191 5.71849C12.4479 5.78924 12.3469 5.77224 12.0555 5.62358C11.8602 5.52394 11.7004 5.41361 11.7004 5.37826C11.7004 5.34293 11.7739 5.31404 11.8639 5.31404C11.9537 5.31404 12.2269 5.25557 12.4708 5.18403C12.7147 5.11257 12.9143 5.02884 12.9143 4.99799C12.9143 4.96714 12.7681 4.85428 12.5892 4.74709C12.4104 4.6399 12.1499 4.48863 12.0105 4.4108C11.7832 4.28402 11.7719 4.25954 11.9009 4.17399C11.9799 4.1215 12.055 3.99385 12.0677 3.89035C12.0864 3.73649 11.9878 3.64087 11.527 3.36605C11.217 3.18118 10.9508 2.97719 10.9354 2.91281C10.9194 2.84623 10.9689 2.79563 11.0499 2.79563C11.1284 2.79563 11.2447 2.74825 11.3085 2.69041C11.4052 2.60266 11.3454 2.55008 10.9473 2.37285C10.5482 2.19522 10.4875 2.14171 10.5757 2.04522C10.656 1.95731 10.6572 1.90371 10.5802 1.81951C10.5026 1.73475 10.5053 1.69894 10.5912 1.66525C10.6528 1.64109 10.6002 1.64054 10.4742 1.66399C10.3483 1.68737 10.2192 1.66832 10.1873 1.62149C10.1514 1.56861 10.2216 1.53429 10.3729 1.53091C10.5069 1.52784 10.6946 1.4977 10.79 1.46385C10.9435 1.40947 10.923 1.38366 10.6107 1.23909C10.4167 1.14922 10.2122 1.02558 10.1562 0.96427C10.0741 0.874471 10.1004 0.833073 10.292 0.751146L10.5298 0.649386L10.244 0.540308C10.0869 0.480337 9.98181 0.3966 10.0106 0.354338C10.0393 0.312076 10.0049 0.20221 9.93383 0.11013C9.80765 -0.0532519 9.80338 -0.050576 9.74634 0.225348ZM9.87951 3.89578C9.87951 3.93277 9.83078 3.98086 9.77111 4.00274C9.71152 4.02454 9.75045 4.04524 9.85778 4.04862C9.96519 4.052 10.0529 4.08545 10.0529 4.12276C10.0529 4.16014 9.96519 4.18241 9.85778 4.17218C9.75045 4.16195 9.64173 4.14912 9.61613 4.14361C9.59045 4.13803 9.56428 4.07002 9.55786 3.99243C9.55062 3.90538 9.60996 3.84691 9.71284 3.83991C9.80445 3.83361 9.87951 3.85879 9.87951 3.89578ZM10.2895 3.94497C10.2607 3.9711 10.1859 3.97393 10.1234 3.95119C10.0542 3.92608 10.0747 3.90743 10.1758 3.90366C10.2672 3.90027 10.3184 3.91884 10.2895 3.94497ZM8.31868 4.47927C8.31868 4.49627 8.26016 4.53059 8.18863 4.55553C8.11709 4.5804 8.05857 4.56647 8.05857 4.5246C8.05857 4.48265 8.11709 4.44834 8.18863 4.44834C8.26016 4.44834 8.31868 4.46227 8.31868 4.47927ZM9.27251 5.39275C9.27251 5.43603 9.2335 5.47145 9.18576 5.47145C9.13811 5.47145 9.0991 5.43603 9.0991 5.39275C9.0991 5.34946 9.13811 5.31404 9.18576 5.31404C9.2335 5.31404 9.27251 5.34946 9.27251 5.39275ZM10.0963 5.39275C10.0667 5.43603 10.006 5.47145 9.96107 5.47145C9.91613 5.47145 9.87951 5.43603 9.87951 5.39275C9.87951 5.34946 9.94033 5.31404 10.0147 5.31404C10.089 5.31404 10.1258 5.34946 10.0963 5.39275ZM7.01804 6.02235C7.01804 6.06564 7.07423 6.10105 7.143 6.10105C7.21175 6.10105 7.29205 6.06564 7.32153 6.02235C7.35101 5.97907 7.29473 5.94365 7.19658 5.94365C7.09842 5.94365 7.01804 5.97907 7.01804 6.02235ZM6.15094 6.49455C6.15094 6.53784 6.13377 6.57325 6.1127 6.57325C6.09163 6.57325 6.05035 6.53784 6.02087 6.49455C5.99139 6.45127 6.00865 6.41585 6.05911 6.41585C6.10958 6.41585 6.15094 6.45127 6.15094 6.49455ZM9.79276 6.6566C9.79276 6.70241 9.75786 6.72034 9.71514 6.69642C9.67243 6.67242 9.61177 6.71365 9.58041 6.78795C9.53177 6.90301 9.51177 6.906 9.44486 6.80778C9.38321 6.71728 9.34387 6.71311 9.26082 6.7885C9.17786 6.86382 9.12765 6.86366 9.02634 6.78779C8.92436 6.71145 8.88988 6.71192 8.86082 6.79016C8.84058 6.84454 8.78848 6.86901 8.74486 6.84454C8.70123 6.82006 8.66551 6.76898 8.66551 6.73097C8.66551 6.69304 8.79243 6.64762 8.94733 6.63016C9.1023 6.61276 9.35605 6.59277 9.51095 6.58585C9.66593 6.57892 9.79276 6.6108 9.79276 6.6566ZM14.2431 6.99839C14.2687 7.05907 14.2675 7.12896 14.2403 7.15367C14.2131 7.17838 14.1573 7.17972 14.1162 7.15674C14.0751 7.13368 14.0416 7.06388 14.0416 7.00147C14.0416 6.93906 14.0765 6.88806 14.119 6.88806C14.1616 6.88806 14.2174 6.93772 14.2431 6.99839ZM9.01235 7.1942C9.01235 7.25433 8.94412 7.35459 8.86066 7.417C8.72 7.52222 8.71975 7.52742 8.85786 7.48815C8.93984 7.46485 9.0256 7.47343 9.04856 7.50711C9.07152 7.5408 8.69588 7.61037 8.21387 7.66168C7.73175 7.71307 7.32014 7.73936 7.29907 7.72031C7.278 7.70119 7.28364 7.65208 7.31147 7.61116C7.33931 7.57023 7.509 7.47296 7.68866 7.39504C7.86824 7.31705 8.10877 7.24378 8.22314 7.23222C8.33745 7.22057 8.46231 7.18271 8.50066 7.14793C8.53885 7.11322 8.66971 7.08481 8.79128 7.08481C8.92222 7.08481 9.01235 7.12943 9.01235 7.1942ZM9.30691 7.1373C9.28239 7.17334 9.2256 7.20286 9.18066 7.20286C9.1358 7.20286 9.0991 7.17334 9.0991 7.1373C9.0991 7.10118 9.15588 7.07166 9.22535 7.07166C9.29482 7.07166 9.33144 7.10118 9.30691 7.1373ZM15.1688 7.12416C15.1688 7.16744 15.0518 7.20286 14.9086 7.20286C14.7656 7.20286 14.6486 7.16744 14.6486 7.12416C14.6486 7.08087 14.7656 7.04546 14.9086 7.04546C15.0518 7.04546 15.1688 7.08087 15.1688 7.12416ZM15.9203 7.17665C15.8885 7.20546 15.8625 7.25582 15.8625 7.28841C15.8625 7.32107 15.9745 7.3701 16.1115 7.39741C16.2485 7.42471 16.4641 7.42346 16.5908 7.39457C16.7749 7.35263 16.801 7.32028 16.7213 7.23316C16.6665 7.17319 16.4769 7.12416 16.2998 7.12416C16.1229 7.12416 15.9521 7.14777 15.9203 7.17665ZM14.1875 7.45376C14.1598 7.51648 14.1393 7.49783 14.1351 7.40614C14.1314 7.32319 14.1519 7.27676 14.1807 7.30288C14.2095 7.32902 14.2126 7.39694 14.1875 7.45376ZM10.2263 7.48484C10.2263 7.55339 10.18 7.5955 10.1234 7.57834C10.0667 7.56118 10.0049 7.50515 9.98609 7.45376C9.96716 7.40228 10.0135 7.36026 10.0891 7.36026C10.1645 7.36026 10.2263 7.41638 10.2263 7.48484ZM6.63097 7.91644C6.63279 8.18607 6.60713 8.33158 6.57201 8.25083C6.53793 8.17221 6.50723 8.0134 6.50385 7.89794C6.50056 7.78241 6.52146 7.63193 6.55041 7.56347C6.57937 7.495 6.6086 7.43904 6.61545 7.43904C6.6223 7.43912 6.62923 7.65389 6.63097 7.91644ZM7.88514 7.91116C7.81361 7.95311 7.61851 7.9838 7.4516 7.97932L7.14811 7.97121L7.40824 7.91116C7.55132 7.87811 7.74641 7.84742 7.84179 7.84301C7.98452 7.83632 7.99215 7.84836 7.88514 7.91116ZM9.24905 7.9587C9.22025 7.98483 9.14543 7.98766 9.08288 7.96492C9.01366 7.93981 9.03424 7.92115 9.13523 7.91738C9.22667 7.914 9.27778 7.93257 9.24905 7.9587ZM4.50344 8.26532C4.50344 8.33025 4.54125 8.38336 4.58747 8.38336C4.6336 8.38336 4.64895 8.33025 4.62154 8.26532C4.59406 8.20039 4.55625 8.14727 4.53752 8.14727C4.51879 8.14727 4.50344 8.20039 4.50344 8.26532ZM5.609 8.24564C5.58914 8.29979 5.52082 8.34402 5.45726 8.34402C5.3937 8.34402 5.32537 8.29979 5.30551 8.24564C5.28401 8.18708 5.34549 8.14727 5.45726 8.14727C5.56903 8.14727 5.6305 8.18708 5.609 8.24564ZM13.9151 8.23124C13.9466 8.27736 13.9505 8.33488 13.924 8.35897C13.8974 8.38305 13.8129 8.38101 13.7364 8.35432C13.6597 8.32765 13.6213 8.27012 13.651 8.22652C13.6807 8.18292 13.7394 8.14727 13.7815 8.14727C13.8235 8.14727 13.8837 8.18504 13.9151 8.23124ZM9.70609 8.30467C9.70609 8.34795 9.63786 8.38282 9.55432 8.38218C9.42461 8.38116 9.42148 8.36983 9.53267 8.30467C9.6042 8.26272 9.67251 8.22785 9.68436 8.22715C9.6963 8.22652 9.70609 8.26138 9.70609 8.30467ZM12.7409 8.38336C12.7409 8.42665 12.7238 8.46207 12.7027 8.46207C12.6816 8.46207 12.6403 8.42665 12.6109 8.38336C12.5814 8.34008 12.5986 8.30467 12.6491 8.30467C12.6996 8.30467 12.7409 8.34008 12.7409 8.38336ZM9.42247 8.58833C9.39366 8.61446 9.31885 8.61728 9.2563 8.59456C9.18708 8.56945 9.20765 8.55075 9.30864 8.54699C9.40008 8.54357 9.45119 8.56219 9.42247 8.58833ZM9.81449 8.59285C9.7549 8.61472 9.65737 8.61472 9.5977 8.59285C9.53811 8.57108 9.58683 8.55322 9.70609 8.55322C9.82527 8.55322 9.87407 8.57108 9.81449 8.59285ZM16.2471 8.70645C16.2207 8.74514 16.1429 8.77691 16.0742 8.77691C16.0054 8.77691 15.9492 8.74736 15.9492 8.71132C15.9492 8.67519 15.9725 8.62454 16.0011 8.59866C16.0296 8.57278 16.1073 8.57056 16.174 8.59379C16.2406 8.61694 16.2735 8.66767 16.2471 8.70645ZM7.00183 8.83063C7.06435 8.85335 7.13918 8.85053 7.16797 8.8244C7.19676 8.79826 7.1456 8.77973 7.0542 8.78306C6.95319 8.7869 6.93263 8.80552 7.00183 8.83063ZM1.94549 9.24905C1.97497 9.29236 1.95771 9.3278 1.90725 9.3278C1.85678 9.3278 1.81542 9.29236 1.81542 9.24905C1.81542 9.20575 1.83259 9.17039 1.85366 9.17039C1.87473 9.17039 1.91601 9.20575 1.94549 9.24905ZM2.8993 9.32669C2.80392 9.36444 2.61862 9.39792 2.48743 9.401C2.35624 9.40399 2.24915 9.3799 2.24941 9.34745C2.24967 9.31499 2.43497 9.28159 2.66128 9.27314C2.95991 9.26204 3.0252 9.27673 2.8993 9.32669ZM13.9782 9.30073C13.9195 9.32225 13.8025 9.32362 13.718 9.30363C13.6337 9.28364 13.6817 9.26596 13.8248 9.26443C13.9679 9.2628 14.0369 9.27912 13.9782 9.30073ZM1.90213 9.48521C1.90213 9.52843 1.86311 9.56387 1.81542 9.56387C1.76774 9.56387 1.72872 9.52843 1.72872 9.48521C1.72872 9.44191 1.76774 9.40646 1.81542 9.40646C1.86311 9.40646 1.90213 9.44191 1.90213 9.48521ZM3.10784 9.56848C3.04541 9.6035 2.95896 9.61238 2.91586 9.58821C2.87277 9.56404 2.88855 9.51553 2.9509 9.48051C3.01333 9.44549 3.09978 9.4367 3.14287 9.46087C3.18597 9.48504 3.17018 9.53347 3.10784 9.56848ZM2.65192 9.61785C2.63102 9.63681 2.46393 9.66927 2.28063 9.68994C2.07044 9.71359 1.97905 9.70001 2.03315 9.6533C2.08032 9.61247 2.19695 9.56456 2.29233 9.54671C2.38771 9.52885 2.51621 9.52979 2.57787 9.54875C2.63951 9.5678 2.67291 9.59889 2.65192 9.61785ZM3.37621 9.79636C3.37621 9.84162 3.281 9.87869 3.16455 9.87869C3.0481 9.87869 2.92878 9.91405 2.8993 9.95735C2.86982 10.0007 2.89679 10.0372 2.95922 10.0384C3.02313 10.0399 3.00015 10.0791 2.90658 10.1284C2.76638 10.2022 2.75961 10.2297 2.86323 10.3046C2.93078 10.3535 3.03301 10.4693 3.0905 10.5622C3.17339 10.696 3.17157 10.7487 3.082 10.8161C2.99755 10.8798 2.92731 10.8582 2.80409 10.7307C2.65582 10.5775 2.65452 10.5653 2.79091 10.6105C2.87442 10.6382 2.94266 10.635 2.94266 10.6034C2.94266 10.572 2.86314 10.5012 2.76602 10.4461C2.62435 10.3657 2.48717 10.365 2.07235 10.4428C1.67018 10.5182 1.53214 10.5187 1.45124 10.4453C1.37034 10.3719 1.37997 10.3483 1.49459 10.339C1.57567 10.3326 1.69082 10.3238 1.75039 10.3194C1.81005 10.315 1.92849 10.2483 2.01365 10.171C2.0994 10.0932 2.21559 10.0559 2.27378 10.0876C2.33942 10.1234 2.33421 10.0948 2.26007 10.0118C2.15394 9.89312 2.16574 9.87869 2.36846 9.87869C2.4935 9.87869 2.59582 9.84991 2.59582 9.81472C2.59582 9.77953 2.77141 9.74246 2.98602 9.73238C3.21268 9.72171 3.37621 9.74853 3.37621 9.79636ZM3.39789 10.0882C3.33832 10.1101 3.24077 10.1101 3.18111 10.0882C3.12154 10.0663 3.17027 10.0485 3.2895 10.0485C3.40872 10.0485 3.45755 10.0663 3.39789 10.0882ZM4.54333 11.2439C4.67547 11.3316 4.68207 11.362 4.58157 11.4195C4.51481 11.4578 4.31381 11.4962 4.13492 11.505C3.95613 11.5137 3.80976 11.4878 3.80976 11.4474C3.80976 11.407 3.84878 11.374 3.89647 11.374C3.94416 11.374 3.98319 11.3208 3.98319 11.2559C3.98319 11.1851 4.06322 11.1379 4.1834 11.1379C4.29351 11.1379 4.45549 11.1855 4.54333 11.2439ZM3.63634 11.6101C3.63634 11.6534 3.59498 11.6888 3.54451 11.6888C3.49405 11.6888 3.47679 11.6534 3.50627 11.6101C3.53575 11.5668 3.57703 11.5314 3.5981 11.5314C3.61917 11.5314 3.63634 11.5668 3.63634 11.6101ZM4.05099 11.7009C4.03261 11.7509 3.93185 11.8206 3.82701 11.8558C3.71334 11.8939 3.63634 11.8891 3.63634 11.8437C3.63634 11.8017 3.71672 11.7675 3.81487 11.7675C3.91303 11.7675 3.96931 11.7321 3.93983 11.6888C3.91035 11.6455 3.93081 11.6101 3.98526 11.6101C4.0398 11.6101 4.06928 11.651 4.05099 11.7009ZM6.84463 12.684C6.84463 12.7387 6.94217 12.8719 7.0614 12.9802C7.18063 13.0884 7.27817 13.2337 7.27817 13.3033C7.27817 13.3787 7.31849 13.4069 7.37833 13.3734C7.44032 13.3385 7.45489 13.3518 7.41648 13.408C7.38249 13.4579 7.32327 13.4989 7.28485 13.4989C7.24644 13.4989 7.11334 13.3658 6.98909 13.203C6.86483 13.0402 6.75003 12.8287 6.73389 12.7328C6.71776 12.637 6.67753 12.5341 6.64449 12.5041C6.61155 12.474 6.5857 12.4112 6.58727 12.3643C6.58874 12.3175 6.64727 12.3478 6.71733 12.4318C6.78731 12.5159 6.84463 12.6293 6.84463 12.684ZM6.49379 12.948C6.50221 12.7686 6.51131 12.7642 6.59654 12.8973C6.66826 13.0093 6.65811 13.0722 6.55293 13.1678C6.42789 13.2813 6.40388 13.2664 6.28058 12.9986C6.20626 12.8371 6.17461 12.6623 6.21025 12.6101C6.25057 12.5511 6.31473 12.6343 6.37977 12.8299C6.4624 13.0783 6.48642 13.1032 6.49379 12.948ZM7.75681 13.5739C7.81647 13.7525 7.81067 13.7574 7.67982 13.6386C7.60195 13.5679 7.5383 13.4474 7.5383 13.3707C7.5383 13.2858 7.5684 13.2606 7.61531 13.3061C7.65762 13.3472 7.72127 13.4678 7.75681 13.5739ZM7.27028 13.7001C7.30549 13.6803 7.34321 13.8421 7.35413 14.0596C7.36506 14.277 7.40694 14.5335 7.44717 14.6296C7.49365 14.7405 7.47882 14.8939 7.4065 15.05C7.3439 15.1853 7.30887 15.3106 7.32872 15.3287C7.34858 15.3467 7.30635 15.3615 7.23482 15.3615C7.1495 15.3615 7.10128 15.278 7.09478 15.1188C7.08932 14.9853 7.09296 14.8054 7.10302 14.7187C7.11308 14.6322 7.15661 14.5496 7.1997 14.5351C7.24288 14.5207 7.27817 14.4764 7.27817 14.4368C7.27817 14.397 7.22944 14.3735 7.16979 14.3843C7.10796 14.3956 7.04918 14.307 7.03296 14.178C7.01727 14.0538 7.03183 13.8589 7.0653 13.7452C7.09877 13.6313 7.14421 13.5827 7.16623 13.6371C7.18826 13.6914 7.23508 13.7198 7.27028 13.7001ZM7.87769 14.2859C7.88038 14.3941 7.84621 14.5348 7.80182 14.5984C7.75742 14.6621 7.69491 14.6903 7.66282 14.6613C7.63074 14.6322 7.59441 14.501 7.58218 14.3698C7.56987 14.2386 7.59398 14.1504 7.63577 14.1739C7.67756 14.1973 7.7145 14.117 7.71779 13.9954C7.72317 13.8009 7.73288 13.7933 7.79844 13.9318C7.83945 14.0183 7.87509 14.1777 7.87769 14.2859ZM8.75556 17.611C8.75556 18.1413 8.76263 18.6813 8.77144 18.8112C8.78016 18.941 8.77391 19.2952 8.75753 19.5982L8.72782 20.1491L8.66189 19.7162C8.62568 19.4782 8.59235 18.9824 8.5879 18.6144C8.58354 18.2465 8.60494 17.6533 8.63556 17.2962C8.66617 16.9391 8.70568 16.6469 8.72337 16.6469C8.74107 16.6469 8.75556 17.0807 8.75556 17.611ZM10.1988 21.2263C10.1712 21.2891 10.1506 21.2704 10.1465 21.1788C10.1427 21.0957 10.1632 21.0494 10.192 21.0755C10.2207 21.1016 10.2239 21.1695 10.1988 21.2263Z" fill="#272928"/>
</g>
<defs>
<clipPath id="clip0_6619_45898">
<rect width="20" height="24" fill="white"/>
</clipPath>
</defs>
</svg>
