<svg width="32" height="32" viewBox="0 0 32 32" fill="none" xmlns="http://www.w3.org/2000/svg">
<path d="M7.82612 18.2946C7.51717 18.2946 7.2644 18.0419 7.2644 17.7329V8.74555C7.2644 8.43661 7.51717 8.18384 7.82612 8.18384H22.4306C22.7395 8.18384 22.9923 8.43661 22.9923 8.74555V17.7329C22.9923 18.0419 22.7395 18.2946 22.4306 18.2946H7.82612Z" fill="#0D0D0D" fill-opacity="0.8"/>
<path d="M22.4406 8.78553V17.7729H7.83607V8.78553H22.4406ZM22.4406 7.66211H7.83607C7.21819 7.66211 6.71265 8.16765 6.71265 8.78553V17.7729C6.71265 18.3908 7.21819 18.8963 7.83607 18.8963H22.4406C23.0584 18.8963 23.564 18.3908 23.564 17.7729V8.78553C23.564 8.16203 23.0641 7.66211 22.4406 7.66211Z" fill="white"/>
<path d="M9.52118 16.6506C9.21224 16.6506 8.95947 16.3978 8.95947 16.0889V7.10151C8.95947 6.79256 9.21224 6.53979 9.52118 6.53979H24.1257C24.4346 6.53979 24.6874 6.79256 24.6874 7.10151V16.0889C24.6874 16.3978 24.4346 16.6506 24.1257 16.6506H9.52118Z" fill="#017A50"/>
<path d="M24.1257 7.10072V16.0881H9.52125V7.10072H24.1257ZM24.1257 5.97729H9.52125C8.90337 5.97729 8.39783 6.48283 8.39783 7.10072V16.0881C8.39783 16.706 8.90337 17.2115 9.52125 17.2115H24.1257C24.7436 17.2115 25.2492 16.706 25.2492 16.0881V7.10072C25.2492 6.47722 24.7492 5.97729 24.1257 5.97729Z" fill="white"/>
<path d="M14.5766 13.2792H12.8915C12.4253 13.2792 12.049 12.9029 12.049 12.4367C12.049 11.9705 12.4253 11.5941 12.8915 11.5941H14.5766C15.0429 11.5941 15.4192 11.9705 15.4192 12.4367C15.4192 12.9029 15.0429 13.2792 14.5766 13.2792Z" fill="#80DCBC"/>
<path d="M23.0023 13.2792H21.3172C20.851 13.2792 20.4746 12.9029 20.4746 12.4367C20.4746 11.9705 20.851 11.5941 21.3172 11.5941H23.0023C23.4685 11.5941 23.8449 11.9705 23.8449 12.4367C23.8449 12.9029 23.4685 13.2792 23.0023 13.2792Z" fill="#80DCBC"/>
<path d="M14.5766 12.7184C14.4194 12.7184 14.2958 12.5948 14.2958 12.4376V9.629C14.2958 9.47172 14.4194 9.34814 14.5766 9.34814C14.7339 9.34814 14.8575 9.47172 14.8575 9.629V12.4376C14.8575 12.5892 14.7339 12.7184 14.5766 12.7184Z" fill="#FF7BAB"/>
<path d="M14.5766 8.78564C14.1104 8.78564 13.734 9.16199 13.734 9.62821V12.4368C13.734 12.903 14.1104 13.2793 14.5766 13.2793C15.0428 13.2793 15.4191 12.903 15.4191 12.4368V9.62821C15.4191 9.16199 15.0428 8.78564 14.5766 8.78564Z" fill="#D6D8D7"/>
<path d="M21.3171 12.7184C21.1598 12.7184 21.0363 12.5948 21.0363 12.4376V9.629C21.0363 9.47172 21.1598 9.34814 21.3171 9.34814C21.4744 9.34814 21.598 9.47172 21.598 9.629V12.4376C21.598 12.5892 21.4744 12.7184 21.3171 12.7184Z" fill="#FF7BAB"/>
<path d="M21.3172 8.78564C20.851 8.78564 20.4746 9.16199 20.4746 9.62821V12.4368C20.4746 12.903 20.851 13.2793 21.3172 13.2793C21.7834 13.2793 22.1597 12.903 22.1597 12.4368V9.62821C22.1597 9.16199 21.7834 8.78564 21.3172 8.78564Z" fill="#D6D8D7"/>
<path d="M5.56523 23.2984C5.42539 23.2218 5.24893 23.1519 5.03584 23.0853C5.02585 23.082 5.01919 23.082 5.01253 23.0786C5.00587 23.0753 4.99588 23.072 4.98589 23.072C4.97258 23.0686 4.96259 23.0653 4.94927 23.0586C4.93595 23.0553 4.92596 23.052 4.91264 23.0487C4.75949 22.9987 4.64295 22.9554 4.55638 22.9188C4.46982 22.8822 4.39989 22.8289 4.33996 22.7623C4.28003 22.6957 4.2534 22.6125 4.2534 22.5059V22.3628C4.2534 22.2429 4.29668 22.1464 4.38658 22.0764C4.46649 22.0132 4.57969 21.9799 4.72286 21.9732C4.84605 21.9699 5.02252 22.0265 5.11242 22.1064C5.14238 22.133 5.16902 22.1597 5.19233 22.193C5.3022 22.3361 5.49198 22.3894 5.65513 22.3128L5.6851 22.2995C5.8882 22.203 5.96145 21.9532 5.84491 21.7601C5.81828 21.7202 5.79164 21.6802 5.76501 21.6436C5.65846 21.5071 5.52195 21.4072 5.36213 21.3406C5.20231 21.274 5.01586 21.2407 4.8061 21.2407C4.52642 21.2407 4.29002 21.2873 4.09358 21.3772C3.89714 21.4705 3.75064 21.6036 3.64742 21.7768C3.5442 21.9532 3.49426 22.163 3.49426 22.4061V22.5226C3.49426 22.7823 3.54754 22.9887 3.65075 23.1452C3.75397 23.3017 3.88049 23.4149 4.02699 23.4882C4.17349 23.5614 4.36327 23.6347 4.59634 23.7046L4.63296 23.7146C4.63629 23.7179 4.63962 23.7179 4.64295 23.7179C4.64628 23.7179 4.65294 23.7212 4.6596 23.7246C4.80277 23.7678 4.91597 23.8078 5.00587 23.8444C5.09244 23.881 5.16569 23.931 5.21896 23.9909C5.27223 24.0542 5.3022 24.1308 5.3022 24.2273V24.4138C5.3022 24.5469 5.25559 24.6502 5.16236 24.7234C5.06913 24.7967 4.93928 24.8333 4.76947 24.8333C4.60633 24.8333 4.46982 24.79 4.35661 24.7001C4.31666 24.6701 4.28003 24.6335 4.24674 24.5902C4.1302 24.4437 3.93043 24.3905 3.75729 24.467C3.52423 24.5703 3.43766 24.8599 3.58083 25.0697C3.60081 25.0963 3.62078 25.123 3.64076 25.1496C3.75729 25.2894 3.90712 25.396 4.09025 25.4659C4.27337 25.5358 4.48313 25.5724 4.72619 25.5724C5.00587 25.5724 5.2456 25.5258 5.44537 25.4359C5.64514 25.3427 5.7983 25.2095 5.90484 25.0364C6.01139 24.8599 6.06133 24.6502 6.06133 24.4071V24.234C6.06133 23.9876 6.01472 23.7878 5.91816 23.638C5.82161 23.4882 5.70507 23.375 5.56523 23.2984Z" fill="white"/>
<path d="M8.06242 22.5758C7.89595 22.4926 7.69617 22.4526 7.46311 22.4526C7.23004 22.4526 7.03027 22.4926 6.86379 22.5758C6.69731 22.6591 6.57079 22.7789 6.48422 22.9387C6.39765 23.0986 6.35437 23.2883 6.35437 23.5148V24.5103C6.35437 24.7367 6.39765 24.9298 6.48422 25.0896C6.57079 25.2494 6.69731 25.3726 6.86379 25.4559C7.03027 25.5391 7.23004 25.5824 7.46311 25.5824C7.69617 25.5824 7.89595 25.5391 8.06242 25.4559C8.2289 25.3726 8.35542 25.2494 8.44199 25.093C8.52856 24.9331 8.57184 24.7434 8.57184 24.5169V23.5148C8.57184 23.2917 8.52856 23.0986 8.44199 22.9387C8.35542 22.7789 8.2289 22.6591 8.06242 22.5758ZM7.81604 24.487C7.81604 24.6068 7.78607 24.7034 7.72281 24.77C7.66288 24.8366 7.57631 24.8699 7.46311 24.8699C7.3499 24.8699 7.26333 24.8366 7.2034 24.77C7.14347 24.7034 7.11351 24.6102 7.11351 24.487V23.5381C7.11351 23.4182 7.14347 23.325 7.20673 23.2617C7.26666 23.1951 7.35323 23.1618 7.46644 23.1618C7.57631 23.1618 7.66288 23.1951 7.72614 23.2584C7.78607 23.325 7.81937 23.4182 7.81937 23.5381V24.487H7.81604Z" fill="white"/>
<path d="M9.74047 23.2817C9.81039 23.2018 9.90694 23.1618 10.0301 23.1618C10.1267 23.1618 10.2066 23.1918 10.2665 23.2517C10.2765 23.2617 10.2898 23.275 10.2998 23.2883C10.3997 23.4215 10.5762 23.4715 10.7327 23.4182C10.9757 23.335 11.0756 23.0453 10.9324 22.8322C10.9291 22.8289 10.9258 22.8222 10.9225 22.8189C10.8359 22.6924 10.716 22.5991 10.5695 22.5425C10.423 22.4826 10.2432 22.4526 10.0368 22.4526C9.79374 22.4526 9.58398 22.4959 9.40751 22.5858C9.23438 22.6757 9.1012 22.8056 9.00797 22.9754C8.91474 23.1452 8.87146 23.3516 8.87146 23.588V24.457C8.87146 24.6934 8.91807 24.8965 9.00797 25.063C9.1012 25.2328 9.23438 25.3593 9.40751 25.4492C9.58065 25.5358 9.79041 25.5824 10.0368 25.5824C10.2466 25.5824 10.4264 25.5524 10.5729 25.4958C10.7194 25.4392 10.8359 25.3493 10.9225 25.2261L10.9258 25.2228C11.0723 25.013 10.9724 24.72 10.7293 24.6368L10.7227 24.6335C10.5662 24.5769 10.3931 24.6335 10.2865 24.76C10.2799 24.77 10.2732 24.7767 10.2632 24.7833C10.2033 24.8432 10.1267 24.8699 10.0268 24.8699C9.90029 24.8699 9.80373 24.8299 9.73714 24.7533C9.66722 24.6768 9.63392 24.5669 9.63392 24.427V23.618C9.63392 23.4715 9.66722 23.3583 9.74047 23.2817Z" fill="white"/>
<path d="M11.6882 21.2842H11.6816C11.4718 21.2842 11.302 21.454 11.302 21.6637C11.302 21.8735 11.4718 22.0433 11.6816 22.0433H11.6882C11.898 22.0433 12.0678 21.8735 12.0678 21.6637C12.0678 21.454 11.898 21.2842 11.6882 21.2842Z" fill="#D6D8D7"/>
<path d="M11.6882 22.4989H11.6816C11.4718 22.4989 11.302 22.6687 11.302 22.8785V25.1592C11.302 25.369 11.4718 25.5388 11.6816 25.5388H11.6882C11.898 25.5388 12.0678 25.369 12.0678 25.1592V22.8785C12.0678 22.6687 11.898 22.4989 11.6882 22.4989Z" fill="white"/>
<path d="M14.1154 22.5725C13.9523 22.4926 13.7558 22.4526 13.5294 22.4526C13.2631 22.4526 13.04 22.5126 12.8602 22.6324C12.8568 22.6324 12.8568 22.6358 12.8535 22.6358C12.6005 22.8056 12.6471 23.1918 12.9301 23.3083C13.0167 23.345 13.1166 23.325 13.1865 23.265C13.2131 23.2417 13.2397 23.2251 13.2697 23.2051C13.3463 23.1652 13.4295 23.1452 13.5194 23.1452C13.6426 23.1452 13.7392 23.1751 13.8091 23.2351C13.879 23.295 13.9123 23.3782 13.9123 23.4881V23.7312H13.4395C13.0932 23.7312 12.8335 23.8111 12.6571 23.9742C12.4806 24.1374 12.394 24.3738 12.394 24.6834C12.394 24.9831 12.464 25.2062 12.6038 25.3593C12.7436 25.5125 12.9501 25.5891 13.2298 25.5891C13.3629 25.5891 13.4861 25.5658 13.5927 25.5225C13.7025 25.4792 13.7891 25.4126 13.8557 25.3227C13.879 25.2927 13.8957 25.2628 13.9123 25.2261C13.9156 25.4026 14.0621 25.5458 14.2386 25.5458H14.2919C14.4717 25.5458 14.6182 25.3993 14.6182 25.2195V23.4815C14.6182 23.2684 14.5749 23.0819 14.4883 22.9321C14.4018 22.7689 14.2786 22.6524 14.1154 22.5725ZM13.7924 24.8799C13.7125 24.9331 13.5927 24.9598 13.4362 24.9598C13.323 24.9598 13.2397 24.9365 13.1831 24.8899C13.1265 24.8432 13.0999 24.7733 13.0999 24.6801C13.0999 24.5602 13.1299 24.4703 13.1931 24.4137C13.2531 24.3538 13.3463 24.3238 13.4628 24.3238H13.9156V24.6468C13.9123 24.7467 13.8724 24.8266 13.7924 24.8799Z" fill="white"/>
<path d="M15.7636 24.7403C15.727 24.7003 15.707 24.6471 15.707 24.5771V21.6771C15.707 21.4674 15.5439 21.2876 15.3341 21.2842C15.121 21.2809 14.9479 21.4507 14.9479 21.6638V24.7336C14.9479 24.99 15.0145 25.1864 15.1476 25.3263C15.2808 25.4661 15.4673 25.536 15.7037 25.536H16.3163C16.3429 25.536 16.3663 25.5127 16.3663 25.4861V24.8468C16.3663 24.8202 16.3429 24.7969 16.3163 24.7969H15.9234C15.8535 24.7969 15.8002 24.7769 15.7636 24.7403Z" fill="white"/>
<path d="M19.3228 24.8035H18.7435V21.6771C18.7435 21.4674 18.5804 21.2876 18.3706 21.2842C18.1575 21.2809 17.9844 21.4507 17.9844 21.6638V25.4595C17.9844 25.5027 18.021 25.5394 18.0643 25.5394H18.3107H18.7468H19.3395C19.5459 25.5394 19.7091 25.3696 19.7057 25.1665C19.6991 24.9634 19.5259 24.8035 19.3228 24.8035Z" fill="white"/>
<path d="M21.5403 22.5725C21.3772 22.4926 21.1807 22.4526 20.9543 22.4526C20.688 22.4526 20.4649 22.5126 20.2851 22.6324C20.2818 22.6324 20.2818 22.6358 20.2784 22.6358C20.0254 22.8056 20.072 23.1918 20.355 23.3083C20.4416 23.345 20.5415 23.325 20.6114 23.265C20.638 23.2417 20.6647 23.2251 20.6946 23.2051C20.7712 23.1652 20.8545 23.1452 20.9444 23.1452C21.0675 23.1452 21.1674 23.1751 21.234 23.2351C21.3039 23.295 21.3372 23.3782 21.3372 23.4881V23.7312H20.8644C20.5182 23.7312 20.2585 23.8111 20.082 23.9742C19.9055 24.1374 19.819 24.3738 19.819 24.6834C19.819 24.9831 19.8889 25.2062 20.0287 25.3593C20.1686 25.5125 20.375 25.5891 20.6547 25.5891C20.7879 25.5891 20.9111 25.5658 21.0176 25.5225C21.1275 25.4792 21.214 25.4126 21.2806 25.3227C21.3039 25.2927 21.3206 25.2628 21.3372 25.2261C21.3406 25.4026 21.4837 25.5424 21.6602 25.5424H21.7168C21.8966 25.5424 22.0398 25.3959 22.0398 25.2195V23.4781C22.0398 23.265 21.9965 23.0786 21.9099 22.9288C21.8267 22.7689 21.7035 22.6524 21.5403 22.5725ZM21.2174 24.8799C21.1375 24.9331 21.0176 24.9598 20.8611 24.9598C20.7479 24.9598 20.6647 24.9365 20.6081 24.8899C20.5515 24.8432 20.5248 24.7733 20.5248 24.6801C20.5248 24.5602 20.5548 24.4703 20.6181 24.4137C20.678 24.3538 20.7712 24.3238 20.8877 24.3238H21.3406V24.6468C21.3372 24.7467 21.2973 24.8266 21.2174 24.8799Z" fill="white"/>
<path d="M24.1607 22.4989H24.1541C24.0009 22.4989 23.8677 22.6022 23.8278 22.7487L23.4116 24.3035L22.9421 22.7487C22.8988 22.6055 22.769 22.4989 22.6158 22.4989C22.3828 22.4956 22.2196 22.722 22.2895 22.9451L23.1053 25.4422L23.0087 25.7985C22.9821 25.8951 22.9454 26.0149 22.8922 26.0516H22.8023C22.6125 26.0516 22.4627 26.208 22.4627 26.3945C22.4627 26.6043 22.6225 26.784 22.8322 26.8007C22.9688 26.8107 23.072 26.7641 23.1519 26.7075C23.1752 26.6908 23.1985 26.6708 23.2218 26.6509L23.2917 26.5876C23.4748 26.4145 23.6014 26.0083 23.6513 25.8385L23.6946 25.692L24.4903 22.9318C24.5503 22.7154 24.3871 22.4989 24.1607 22.4989Z" fill="white"/>
<path d="M26.4514 22.6091C26.2849 22.5059 26.0851 22.4526 25.8521 22.4526C25.6124 22.4526 25.4059 22.4992 25.2361 22.5958C25.0663 22.689 24.9365 22.8289 24.8466 23.0053C24.7567 23.1851 24.7134 23.4016 24.7134 23.6546V24.4337C24.7134 24.6734 24.76 24.8799 24.8532 25.0497C24.9464 25.2228 25.0796 25.3527 25.2561 25.4426C25.4292 25.5325 25.6423 25.5791 25.8887 25.5791C26.1684 25.5791 26.3948 25.5158 26.5713 25.3926C26.6245 25.356 26.6745 25.3094 26.7178 25.2594C26.8776 25.0763 26.801 24.79 26.5746 24.7034L26.548 24.6934C26.4148 24.6435 26.2716 24.6834 26.1717 24.7866C26.1584 24.8 26.1451 24.8133 26.1284 24.8266C26.0585 24.8799 25.9719 24.9065 25.8654 24.9065C25.7256 24.9065 25.619 24.8665 25.5424 24.7866C25.4659 24.7067 25.4292 24.5935 25.4292 24.447V24.3138H26.4214C26.7178 24.3138 26.9575 24.0741 26.9575 23.7778C26.9575 23.4981 26.9142 23.2584 26.8276 23.0586C26.7411 22.8622 26.6145 22.7123 26.4514 22.6091ZM26.2416 23.7745H25.4326V23.6246C25.4326 23.4715 25.4692 23.3516 25.5424 23.265C25.6157 23.1818 25.7189 23.1385 25.8487 23.1385C25.9653 23.1385 26.0585 23.1751 26.1318 23.2517C26.205 23.3283 26.2416 23.4282 26.2416 23.558V23.7745Z" fill="white"/>
<path d="M28.9951 22.6154C28.9785 22.6054 28.9618 22.5988 28.9452 22.5921C28.8919 22.5722 28.8353 22.5622 28.7754 22.5622C28.6122 22.5622 28.4657 22.6121 28.3292 22.7153C28.2227 22.7952 28.1328 22.8984 28.0595 23.025V22.8951C28.0595 22.6754 27.8831 22.4989 27.6633 22.4989C27.4436 22.4989 27.2671 22.6754 27.2671 22.8951V25.1426C27.2671 25.3623 27.4436 25.5388 27.6633 25.5388C27.8831 25.5388 28.0595 25.3623 28.0595 25.1426V23.9173C28.0595 23.7342 28.1061 23.591 28.1994 23.4878C28.2926 23.3846 28.4224 23.3313 28.5856 23.3313C28.6389 23.3313 28.6888 23.3346 28.7354 23.3446C28.802 23.3579 28.8686 23.3246 28.8919 23.258L29.0517 22.7653C29.0684 22.712 29.0484 22.6454 28.9951 22.6154Z" fill="white"/>
</svg>
