<svg width="989" height="240" viewBox="0 0 989 240" fill="none" xmlns="http://www.w3.org/2000/svg">
<path d="M318.797 51.9816C318.797 58.1296 314.743 61.35 306.925 61.35C295.633 61.35 282.314 58.4223 269.284 55.7875C257.992 53.4454 246.12 50.8105 233.091 48.7612C216.586 54.9092 202.109 65.4486 191.685 75.1098C174.312 91.5045 167.074 104.093 166.784 113.754C166.784 115.218 167.363 117.268 167.653 118.439C172.575 118.731 177.787 119.317 183.288 120.781C188.79 122.245 191.685 124.879 191.396 127.514C191.106 128.978 188.79 130.442 186.184 130.442C180.103 130.442 171.707 126.343 165.626 121.366C156.361 121.659 146.226 124.587 134.934 130.149C123.642 135.712 114.376 141.274 106.558 147.422C80.2096 166.452 63.1263 191.922 63.1263 210.951C63.1263 225.004 71.8127 232.616 88.896 232.909C111.191 233.201 138.698 222.076 163.02 205.975C173.733 198.948 183.868 191.336 191.685 184.603C196.608 180.797 199.822 177.33 200.98 178.794C202.428 180.258 199.793 183.139 195.16 186.945C187.342 193.678 176.05 203.047 165.916 209.195C141.883 225.59 112.349 238.178 88.0273 238.178C75.5768 238.178 64.8635 235.544 55.8876 229.981C46.9116 224.419 42.5684 215.928 42.8579 204.218C29.2492 203.34 18.536 197.777 11.0077 187.823C3.76905 177.577 0.00493547 165.866 0.00493547 152.692C-0.284612 123.416 12.1659 97.067 37.3565 74.817C53.8607 59.8862 73.2604 49.3467 94.9765 42.9059C116.982 36.4652 139.277 33.2448 162.151 33.2448C181.841 33.2448 205.584 36.4652 220.93 39.6856C233.38 36.1724 253.648 33.2448 273.048 33.2448C304.609 33.2448 318.797 41.4421 318.797 51.9816ZM306.636 58.4223C312.137 58.4223 315.612 56.6658 315.612 52.2743C315.612 43.7842 302.003 38.2217 282.603 38.2217C267.257 38.2217 252.49 41.1494 241.777 44.3698L270.732 51.6888C276.523 53.1526 282.893 54.6164 290.131 56.0802C297.37 57.5441 302.871 58.4223 306.636 58.4223ZM43.1475 200.705C44.5952 173.771 71.2336 147.129 96.4242 134.541C113.797 126.05 137.25 118.731 163.599 118.439C160.993 115.218 157.808 109.363 157.808 102.044C157.808 94.7249 160.414 82.7216 171.707 69.8401C179.814 60.7644 191.975 51.6888 208.479 45.5408C196.608 44.077 181.551 43.1987 165.337 43.1987C127.116 43.1987 77.8932 54.6164 44.5952 81.2578C19.1151 102.337 5.50633 129.564 5.79588 154.448C5.79588 178.748 20.2733 198.363 43.1475 200.705Z" fill="black"/>
<path d="M253.975 163.34C252.963 163.542 252.204 163.643 251.697 163.643C250.382 163.643 249.42 163.39 248.813 162.884C248.206 162.378 247.75 161.822 247.447 161.214C244.816 155.446 241.678 151.246 238.035 148.615C234.391 145.984 229.432 144.668 223.158 144.668C220.729 144.668 218.401 145.022 216.174 145.731C214.049 146.338 212.177 147.299 210.558 148.615C208.938 149.829 207.623 151.347 206.611 153.169C205.7 154.991 205.244 157.015 205.244 159.241C205.244 163.997 207.218 167.894 211.165 170.93C215.213 173.966 221.133 177.052 228.926 180.19C238.642 184.035 245.777 188.337 250.331 193.093C254.987 197.748 257.314 203.517 257.314 210.398C257.314 214.548 256.657 218.444 255.341 222.087C254.126 225.629 252.153 228.767 249.42 231.499C246.789 234.13 243.348 236.205 239.097 237.723C234.847 239.241 229.736 240 223.765 240C217.49 240 211.772 239.342 206.611 238.027C201.55 236.711 197.249 234.991 193.707 232.865C193.403 228.615 192.948 224.516 192.341 220.569C191.733 216.622 191.025 212.676 190.215 208.729C190.924 208.425 191.784 208.273 192.796 208.273C194.01 208.273 194.921 208.577 195.529 209.184C196.237 209.69 196.844 210.55 197.35 211.765C199.88 219.051 203.119 224.415 207.066 227.856C211.114 231.297 216.731 233.017 223.917 233.017C227.155 233.017 229.989 232.562 232.418 231.651C234.847 230.74 236.871 229.475 238.49 227.856C240.109 226.237 241.324 224.415 242.134 222.391C242.943 220.367 243.348 218.191 243.348 215.863C243.348 210.601 241.526 206.452 237.883 203.416C234.341 200.38 229.23 197.647 222.55 195.218C218.199 193.599 214.252 191.929 210.709 190.209C207.167 188.387 204.131 186.312 201.601 183.985C199.071 181.657 197.097 178.975 195.68 175.939C194.365 172.802 193.707 169.108 193.707 164.858C193.707 161.113 194.365 157.622 195.68 154.383C197.097 151.044 199.071 148.159 201.601 145.731C204.232 143.302 207.37 141.379 211.013 139.962C214.656 138.545 218.755 137.837 223.309 137.837C228.066 137.837 232.62 138.292 236.972 139.203C241.324 140.114 246.232 141.632 251.697 143.757C251.9 146.793 252.153 150.082 252.457 153.624C252.861 157.065 253.367 160.304 253.975 163.34Z" fill="black"/>
<path d="M366.276 142.391C366.478 141.986 366.681 141.581 366.883 141.176C367.187 140.772 367.642 140.468 368.249 140.266C368.856 140.063 369.666 139.911 370.678 139.81C371.69 139.608 373.107 139.507 374.929 139.507C375.738 139.507 376.801 139.507 378.117 139.507C379.432 139.405 380.849 139.355 382.367 139.355C383.885 139.254 385.404 139.152 386.922 139.051C388.541 138.95 390.008 138.849 391.324 138.748C391.526 139.76 391.628 140.569 391.628 141.176C391.628 142.796 391.122 143.656 390.11 143.757C386.466 144.263 384.037 144.972 382.823 145.882C381.608 146.692 381.001 147.805 381.001 149.222C381.001 149.323 381.052 150.689 381.153 153.321C381.355 155.851 381.608 160.152 381.912 166.224C382.216 172.195 382.57 180.19 382.975 190.209C383.481 200.228 384.037 212.676 384.644 227.552C384.746 229.475 385.404 230.892 386.618 231.803C387.832 232.713 390.312 233.472 394.057 234.08C394.563 234.181 394.917 234.485 395.119 234.991C395.423 235.395 395.575 235.901 395.575 236.509C395.575 237.116 395.473 237.925 395.271 238.937C391.729 238.735 388.49 238.533 385.555 238.33C382.722 238.229 380.09 238.178 377.661 238.178C376.649 238.178 375.384 238.178 373.866 238.178C372.348 238.28 370.729 238.33 369.008 238.33C367.389 238.431 365.77 238.533 364.15 238.634C362.531 238.735 361.114 238.836 359.9 238.937C359.697 237.925 359.596 237.116 359.596 236.509C359.596 234.889 360.102 234.08 361.114 234.08C365.162 233.27 367.895 232.46 369.312 231.651C370.83 230.841 371.589 229.475 371.589 227.552C371.589 227.249 371.488 225.376 371.285 221.935C371.184 218.495 370.982 214.295 370.678 209.336C370.476 204.377 370.223 199.013 369.919 193.245C369.717 187.476 369.464 182.062 369.16 177.002C368.958 171.841 368.755 167.438 368.553 163.795C368.35 160.051 368.249 157.774 368.249 156.964L335.003 237.268C334.598 238.178 334.194 238.836 333.789 239.241C333.485 239.747 333.03 240 332.423 240C331.714 240 331.259 239.949 331.056 239.848L293.863 154.535C293.762 155.547 293.61 158.027 293.408 161.973C293.307 165.819 293.104 170.424 292.801 175.787C292.598 181.151 292.345 186.818 292.042 192.789C291.738 198.76 291.434 204.276 291.131 209.336C290.928 214.396 290.726 218.646 290.524 222.087C290.422 225.528 290.372 227.35 290.372 227.552C290.372 230.689 293.813 232.865 300.695 234.08C301.707 234.181 302.213 234.991 302.213 236.509C302.213 237.116 302.112 237.925 301.909 238.937C299.177 238.735 296.495 238.533 293.863 238.33C291.232 238.229 288.904 238.178 286.88 238.178C285.261 238.178 283.085 238.229 280.352 238.33C277.62 238.533 275.039 238.735 272.61 238.937C272.408 237.925 272.307 237.116 272.307 236.509C272.307 235.092 272.813 234.282 273.825 234.08C276.557 233.574 278.733 232.865 280.352 231.954C282.073 230.942 283.034 229.475 283.237 227.552C283.237 226.641 283.338 224.111 283.54 219.962C283.743 215.712 283.945 210.702 284.148 204.934C284.451 199.165 284.755 193.042 285.058 186.565C285.362 180.089 285.615 174.118 285.818 168.653C286.121 163.087 286.324 158.533 286.425 154.991C286.627 151.347 286.728 149.475 286.728 149.374C286.728 147.755 286.071 146.591 284.755 145.882C283.54 145.073 281.162 144.364 277.62 143.757C276.608 143.656 276.102 142.796 276.102 141.176C276.102 140.569 276.203 139.76 276.405 138.748C277.721 138.849 279.189 138.95 280.808 139.051C282.528 139.152 284.198 139.254 285.818 139.355C287.538 139.355 289.157 139.405 290.675 139.507C292.193 139.507 293.408 139.507 294.319 139.507C296.14 139.507 297.557 139.608 298.569 139.81C299.581 139.911 300.391 140.063 300.998 140.266C301.606 140.468 302.01 140.772 302.213 141.176C302.516 141.581 302.769 141.986 302.972 142.391L335.459 218.14L366.276 142.391Z" fill="black"/>
<path d="M436.167 145.731V184.592H459.849C461.873 184.592 463.29 183.631 464.099 181.708C465.01 179.684 465.719 177.255 466.225 174.421C466.528 173.106 467.439 172.448 468.957 172.448C469.261 172.448 469.666 172.498 470.172 172.6C470.678 172.701 471.082 172.802 471.386 172.903C471.184 175.13 470.981 177.66 470.779 180.493C470.678 183.327 470.627 185.806 470.627 187.932C470.627 189.652 470.678 191.777 470.779 194.307C470.88 196.736 471.082 199.519 471.386 202.657C470.576 202.859 469.817 202.96 469.109 202.96C467.49 202.96 466.528 202.302 466.225 200.987C465.719 198.153 465.01 195.775 464.099 193.852C463.29 191.828 461.873 190.816 459.849 190.816H436.167V226.641C436.167 228.767 437.533 230.183 440.265 230.892C442.998 231.6 447.502 231.954 453.776 231.954H462.126C465.061 231.954 467.591 231.55 469.716 230.74C471.943 229.829 473.866 228.665 475.485 227.249C477.205 225.731 478.723 223.96 480.039 221.935C481.355 219.911 482.62 217.685 483.834 215.256C484.138 214.548 484.897 214.194 486.111 214.194C486.617 214.194 487.123 214.345 487.629 214.649C488.237 214.953 488.793 215.256 489.299 215.56C488.389 217.483 487.579 219.81 486.87 222.543C486.263 225.174 485.656 227.704 485.049 230.133C484.442 232.562 483.784 234.636 483.075 236.357C482.468 238.077 481.658 238.937 480.646 238.937C479.837 238.937 478.673 238.887 477.155 238.786C475.637 238.684 473.967 238.583 472.145 238.482C470.425 238.482 468.654 238.431 466.832 238.33C465.01 238.229 463.441 238.178 462.126 238.178H428.88C425.945 238.178 422.808 238.229 419.468 238.33C416.128 238.533 412.94 238.735 409.904 238.937C409.701 237.925 409.6 237.116 409.6 236.509C409.6 235.092 410.106 234.282 411.118 234.08C414.964 233.371 417.697 232.612 419.316 231.803C421.036 230.993 421.897 229.576 421.897 227.552V150.285C421.897 148.261 421.138 146.894 419.62 146.186C418.203 145.376 415.369 144.567 411.118 143.757C410.106 143.555 409.6 142.695 409.6 141.176C409.6 140.67 409.6 140.266 409.6 139.962C409.701 139.557 409.803 139.152 409.904 138.748C414.256 139.051 417.899 139.254 420.834 139.355C423.769 139.456 426.4 139.507 428.728 139.507H458.634C463.188 139.507 467.135 139.355 470.475 139.051C473.815 138.748 476.042 138.596 477.155 138.596C478.47 138.596 479.331 139.456 479.736 141.176C480.242 142.796 480.646 144.769 480.95 147.097C481.254 149.424 481.608 151.904 482.013 154.535C482.417 157.166 483.176 159.393 484.29 161.214C483.48 161.822 482.569 162.125 481.557 162.125C480.242 162.125 479.381 161.67 478.976 160.759C477.762 158.128 476.598 155.901 475.485 154.08C474.372 152.157 473.056 150.588 471.538 149.374C470.121 148.159 468.35 147.249 466.225 146.641C464.201 146.034 461.67 145.731 458.634 145.731H436.167Z" fill="black"/>
<path d="M539.315 193.852H528.082V227.249C528.082 229.475 529.094 230.993 531.118 231.803C533.243 232.612 536.431 233.27 540.682 233.776C541.896 233.979 542.503 234.839 542.503 236.357C542.503 237.065 542.402 237.925 542.2 238.937C539.467 238.735 536.127 238.533 532.18 238.33C528.335 238.229 524.539 238.178 520.795 238.178C518.163 238.178 515.127 238.229 511.686 238.33C508.245 238.533 505.007 238.735 501.971 238.937C501.768 237.925 501.667 237.116 501.667 236.509C501.667 235.092 502.224 234.282 503.337 234.08C507.183 233.472 509.865 232.764 511.383 231.954C513.002 231.044 513.812 229.576 513.812 227.552V150.285C513.812 148.362 513.053 146.945 511.534 146.034C510.118 145.022 507.284 144.263 503.033 143.757C502.021 143.656 501.515 142.796 501.515 141.176C501.515 140.569 501.616 139.76 501.819 138.748C504.855 138.95 507.992 139.152 511.231 139.355C514.469 139.456 517.556 139.507 520.491 139.507H540.985C551.915 139.507 560.164 141.935 565.73 146.793C571.296 151.55 574.079 158.027 574.079 166.224C574.079 168.45 573.675 170.778 572.865 173.207C572.156 175.636 570.993 178.014 569.373 180.342C567.855 182.669 565.831 184.845 563.301 186.869C560.872 188.792 557.988 190.361 554.648 191.575L580 226.793C581.923 229.424 584.048 231.246 586.376 232.258C588.703 233.27 590.879 234.029 592.904 234.535C593.814 234.738 594.27 235.446 594.27 236.66C594.27 237.47 594.169 238.381 593.966 239.393C591.638 239.19 588.805 238.988 585.465 238.786C582.125 238.684 579.038 238.634 576.205 238.634C574.079 238.634 571.903 237.723 569.677 235.901C567.552 234.08 565.528 231.752 563.605 228.918L539.315 193.852ZM536.127 187.628C543.212 187.628 548.677 186.161 552.523 183.226C556.368 180.19 558.291 174.927 558.291 167.438C558.291 164.301 557.886 161.417 557.077 158.786C556.267 156.154 554.952 153.877 553.13 151.954C551.409 150.032 549.082 148.514 546.147 147.4C543.313 146.287 539.821 145.731 535.672 145.731H528.082V187.628H536.127Z" fill="black"/>
<path d="M658.244 202.049H624.391L614.675 226.49C614.169 227.704 613.916 228.716 613.916 229.526C613.916 231.651 617.003 233.169 623.176 234.08C623.885 234.181 624.34 234.485 624.542 234.991C624.846 235.395 624.998 235.901 624.998 236.509C624.998 237.116 624.897 237.925 624.694 238.937C621.962 238.735 619.077 238.533 616.041 238.33C613.005 238.229 610.02 238.178 607.085 238.178C605.06 238.178 602.986 238.229 600.86 238.33C598.735 238.431 596.509 238.634 594.181 238.937C593.978 238.128 593.877 237.318 593.877 236.509C593.877 235.8 593.978 235.193 594.181 234.687C594.484 234.181 595.041 233.877 595.851 233.776C598.988 233.27 601.316 232.663 602.834 231.954C604.453 231.145 605.617 229.93 606.326 228.311L642.911 140.266C643.62 138.545 644.581 137.685 645.796 137.685C646.2 137.685 646.808 137.786 647.617 137.989L684.355 228.767C684.962 230.183 686.328 231.297 688.454 232.106C690.579 232.916 692.654 233.472 694.678 233.776C695.285 233.979 695.74 234.282 696.044 234.687C696.449 234.991 696.651 235.598 696.651 236.509C696.651 237.116 696.55 237.925 696.348 238.937C693.109 238.735 689.921 238.533 686.784 238.33C683.646 238.229 680.711 238.178 677.979 238.178C675.145 238.178 671.906 238.229 668.263 238.33C664.62 238.533 661.331 238.735 658.396 238.937C658.193 237.925 658.092 237.116 658.092 236.509C658.092 235.598 658.244 234.991 658.547 234.687C658.952 234.282 659.306 234.08 659.61 234.08C662.241 233.574 664.367 233.017 665.986 232.41C667.605 231.701 668.415 230.689 668.415 229.374C668.415 228.767 668.213 228.008 667.808 227.097L658.244 202.049ZM655.815 195.825L641.697 158.634L626.971 195.825H655.815Z" fill="black"/>
<path d="M730.887 227.249C730.887 228.969 731.646 230.183 733.165 230.892C734.683 231.6 736.757 231.954 739.389 231.954H755.936C758.871 231.954 761.401 231.6 763.526 230.892C765.651 230.082 767.473 228.969 768.991 227.552C770.509 226.135 771.825 224.415 772.938 222.391C774.153 220.266 775.215 217.887 776.126 215.256C776.43 214.447 777.037 214.042 777.948 214.042C778.454 214.042 778.96 214.194 779.466 214.497C780.073 214.7 780.68 214.953 781.288 215.256C780.579 218.292 779.871 221.531 779.162 224.972C778.555 228.311 777.998 232.106 777.492 236.357C777.391 237.47 777.088 238.178 776.582 238.482C776.076 238.786 775.468 238.937 774.76 238.937C773.039 238.937 770.864 238.786 768.232 238.482C765.702 238.28 763.476 238.178 761.553 238.178H723.601C721.273 238.178 718.338 238.229 714.796 238.33C711.254 238.533 707.863 238.735 704.625 238.937C704.422 237.925 704.321 237.116 704.321 236.509C704.321 235.092 704.827 234.282 705.839 234.08C709.989 233.371 712.822 232.612 714.34 231.803C715.858 230.892 716.617 229.526 716.617 227.704V150.285C716.617 148.261 715.909 146.844 714.492 146.034C713.075 145.123 710.343 144.364 706.295 143.757C705.789 143.656 705.384 143.403 705.08 142.998C704.878 142.492 704.776 141.935 704.776 141.328C704.776 140.62 704.878 139.76 705.08 138.748C708.521 138.95 711.911 139.152 715.251 139.355C718.591 139.456 721.425 139.507 723.753 139.507C727.193 139.507 730.837 139.456 734.683 139.355C738.528 139.152 741.969 138.95 745.006 138.748C745.208 139.76 745.309 140.569 745.309 141.176C745.309 142.897 744.753 143.808 743.639 143.909C739.287 144.415 736.049 145.174 733.924 146.186C731.899 147.097 730.887 148.817 730.887 151.347V227.249Z" fill="black"/>
<path d="M874.136 191.727C874.136 176.142 870.24 164.605 862.447 157.116C854.755 149.526 843.471 145.731 828.594 145.731H815.386V226.49C815.386 227.502 815.639 228.362 816.145 229.07C816.651 229.779 817.512 230.335 818.726 230.74C819.941 231.145 821.61 231.448 823.736 231.651C825.861 231.853 828.543 231.954 831.782 231.954C839.574 231.954 846.153 231.044 851.517 229.222C856.88 227.299 861.232 224.617 864.572 221.176C867.912 217.634 870.341 213.384 871.859 208.425C873.377 203.466 874.136 197.9 874.136 191.727ZM890.076 188.843C890.076 194.813 889.013 200.734 886.888 206.603C884.864 212.473 881.726 217.786 877.476 222.543C873.326 227.198 868.013 230.993 861.536 233.928C855.16 236.762 847.671 238.178 839.068 238.178H807.948C805.316 238.178 802.331 238.229 798.991 238.33C795.651 238.533 792.413 238.735 789.275 238.937C789.073 237.925 788.972 237.116 788.972 236.509C788.972 235.092 789.528 234.282 790.642 234.08C794.386 233.169 797.068 232.309 798.687 231.499C800.307 230.689 801.116 229.374 801.116 227.552V150.285C801.116 148.261 800.357 146.844 798.839 146.034C797.321 145.225 794.589 144.466 790.642 143.757C790.034 143.656 789.579 143.352 789.275 142.846C789.073 142.34 788.972 141.784 788.972 141.176C788.972 140.569 789.073 139.76 789.275 138.748C791.401 138.95 793.222 139.102 794.74 139.203C796.36 139.203 797.878 139.254 799.295 139.355C800.712 139.456 802.078 139.507 803.393 139.507C804.81 139.507 806.278 139.507 807.796 139.507H838.917C847.418 139.507 854.856 140.822 861.232 143.454C867.709 146.085 873.073 149.627 877.324 154.08C881.575 158.533 884.763 163.744 886.888 169.715C889.013 175.686 890.076 182.062 890.076 188.843Z" fill="black"/>
<path d="M950.593 202.049H916.739L907.024 226.49C906.518 227.704 906.265 228.716 906.265 229.526C906.265 231.651 909.351 233.169 915.525 234.08C916.233 234.181 916.689 234.485 916.891 234.991C917.195 235.395 917.347 235.901 917.347 236.509C917.347 237.116 917.245 237.925 917.043 238.937C914.311 238.735 911.426 238.533 908.39 238.33C905.354 238.229 902.368 238.178 899.433 238.178C897.409 238.178 895.334 238.229 893.209 238.33C891.084 238.431 888.857 238.634 886.53 238.937C886.327 238.128 886.226 237.318 886.226 236.509C886.226 235.8 886.327 235.193 886.53 234.687C886.833 234.181 887.39 233.877 888.2 233.776C891.337 233.27 893.665 232.663 895.183 231.954C896.802 231.145 897.966 229.93 898.674 228.311L935.26 140.266C935.968 138.545 936.93 137.685 938.144 137.685C938.549 137.685 939.156 137.786 939.966 137.989L976.704 228.767C977.311 230.183 978.677 231.297 980.802 232.106C982.928 232.916 985.002 233.472 987.027 233.776C987.634 233.979 988.089 234.282 988.393 234.687C988.798 234.991 989 235.598 989 236.509C989 237.116 988.899 237.925 988.696 238.937C985.458 238.735 982.27 238.533 979.132 238.33C975.995 238.229 973.06 238.178 970.328 238.178C967.494 238.178 964.255 238.229 960.612 238.33C956.969 238.533 953.679 238.735 950.744 238.937C950.542 237.925 950.441 237.116 950.441 236.509C950.441 235.598 950.593 234.991 950.896 234.687C951.301 234.282 951.655 234.08 951.959 234.08C954.59 233.574 956.716 233.017 958.335 232.41C959.954 231.701 960.764 230.689 960.764 229.374C960.764 228.767 960.561 228.008 960.157 227.097L950.593 202.049ZM948.164 195.825L934.046 158.634L919.32 195.825H948.164Z" fill="black"/>
<path d="M360.539 109.146V2.12524H445.703V26.2619H388.32V44.1746H438.113V66.945H388.32V85.0095H445.703V109.146H360.539Z" fill="black"/>
<path d="M461.349 109.146V2.12524H502.337C531.636 2.12524 561.998 9.56357 561.998 55.5598C561.998 101.708 531.636 109.146 502.337 109.146H461.349ZM488.978 84.8577H502.337C520.706 84.8577 534.369 84.2505 534.369 55.5598C534.369 26.8691 520.554 26.2619 502.337 26.2619H488.978V84.8577Z" fill="black"/>
<path d="M624.189 111.12C592.613 111.12 573.03 89.4118 573.03 56.4706C573.03 21.556 594.89 0 628.288 0C656.676 0 678.688 16.2429 682.331 40.3795H653.943C652.122 30.3605 642.102 23.833 629.806 23.833C612.044 23.833 601.57 35.8254 601.57 56.0152C601.57 74.9905 610.678 86.9829 631.324 86.9829C647.112 86.9829 657.131 80.1518 658.194 69.6774H632.387V48.5769H671.705C680.662 48.5769 686.127 53.7381 686.127 62.9981V109.146H658.649V101.86L663.963 82.5807H656.979C657.739 87.2865 656.524 111.12 624.189 111.12Z" fill="black"/>
<path d="M703.293 109.146V2.12524H788.457V26.2619H731.074V44.1746H780.867V66.945H731.074V85.0095H788.457V109.146H703.293Z" fill="black"/>
</svg>
